# xmcd
#
# Track frame offsets:
#   150
#   12477
#   24142
#   36890
#   49497
#   63064
#   73425
#   87879
#   102540
#   115182
#   124415
#   134832
#
# Disc length: 1992 seconds
#
# Revision: 0
# Processed by: cddbd v1.5.2PL0 Copyright (c) Steve Scherf et al.
# Submitted via: uFREEDB ActiveX Control 1.5
#
DISCID=b107c60c
DTITLE=Tchê Barbaridade - Tchê Barbaridade
DYEAR=1992
DGENRE=Country
TTITLE0=Moça Fandangueira
TTITLE1=Vamo Pro Sul
TTITLE2=Morena Flor
TTITLE3=Ela é Maleva
TTITLE4=Cheiroso
TTITLE5=Ameaços de Amor
TTITLE6=Embalo de Vaneira
TTITLE7=Não Sei Dançar
TTITLE8=Mondongaço
TTITLE9=Chimarrão Pra Ela
TTITLE10=Monarcas da Serra
TTITLE11=Canção à Jovem Gaúcha
EXTD=
EXTT0=
EXTT1=
EXTT2=
EXTT3=
EXTT4=
EXTT5=
EXTT6=
EXTT7=
EXTT8=
EXTT9=
EXTT10=
EXTT11=
PLAYORDER=
